<svg width="15" height="14" viewBox="0 0 15 14" fill="none" xmlns="http://www.w3.org/2000/svg">
<path fill-rule="evenodd" clip-rule="evenodd" d="M7.41707 1.68642C8.30297 1.6522 9.19015 1.67603 10.0729 1.75774C10.5012 1.75234 10.9267 1.82759 11.3272 1.97956C11.8799 2.23771 12.324 2.68296 12.5815 3.23698C12.7328 3.63958 12.8071 4.06711 12.8007 4.49726C12.8007 5.1627 12.8718 5.38451 12.8718 7.15974C12.906 8.04784 12.8822 8.93723 12.8007 9.82222C12.8061 10.2515 12.731 10.6781 12.5794 11.0796C12.3219 11.6337 11.8778 12.0789 11.3251 12.3371C10.9245 12.489 10.4991 12.5643 10.0708 12.5589C9.40702 12.5589 9.18576 12.6302 7.41494 12.6302C6.52971 12.6636 5.64324 12.6391 4.7612 12.5567C4.33294 12.5621 3.90747 12.4869 3.5069 12.3349C2.95473 12.0775 2.51065 11.6333 2.2526 11.0804C2.101 10.6788 2.02595 10.2523 2.03133 9.82293C2.03133 9.15749 1.96019 8.93568 1.96019 7.16045C1.92606 6.27235 1.94982 5.38296 2.03133 4.49797C2.02595 4.06864 2.101 3.64211 2.2526 3.24055C2.38135 2.96602 2.55604 2.71562 2.76912 2.50022C2.94212 2.24152 3.20522 2.05687 3.5069 1.98241C3.90747 1.83044 4.33294 1.7552 4.7612 1.7606C5.644 1.67888 6.53118 1.65506 7.41707 1.68927V1.68642ZM7.41707 0.503176C6.50747 0.469856 5.59668 0.493677 4.69005 0.574499C4.13451 0.573859 3.58354 0.675142 3.06437 0.873341C2.61668 1.01974 2.21148 1.27365 1.88406 1.61296C1.5456 1.94119 1.29232 2.3474 1.14628 2.79621C0.913172 3.30611 0.810708 3.86629 0.848179 4.42593C0.767559 5.33482 0.743797 6.24787 0.777034 7.15974C0.743678 8.07255 0.76744 8.98656 0.848179 9.8964C0.846979 10.4522 0.947039 11.0035 1.14343 11.5233C1.28947 11.9721 1.54275 12.3783 1.88122 12.7065C2.20863 13.0458 2.61383 13.2997 3.06153 13.4461C3.57999 13.643 4.12995 13.7433 4.68436 13.7421C5.59194 13.8231 6.50368 13.8469 7.41423 13.8134C8.32478 13.8469 9.23652 13.8231 10.1441 13.7421C10.6985 13.7433 11.2485 13.643 11.7669 13.4461C12.2121 13.2927 12.6165 13.0395 12.9494 12.7058C13.2822 12.3721 13.5348 11.9667 13.6879 11.5204C13.8843 11.0007 13.9843 10.4493 13.9831 9.89354C13.9831 9.15392 14.0543 8.93211 14.0543 7.15689C14.0876 6.24407 14.0639 5.33006 13.9831 4.42023C13.9843 3.86444 13.8843 3.3131 13.6879 2.79335C13.5418 2.34454 13.2885 1.93834 12.9501 1.61011C12.6226 1.27194 12.2176 1.01903 11.7705 0.873341C11.252 0.675398 10.7018 0.57412 10.1469 0.574499C9.23936 0.493556 8.32762 0.469735 7.41707 0.503176ZM7.41707 3.75764C6.9694 3.75031 6.52482 3.8333 6.10978 4.00168C5.69474 4.17006 5.31771 4.42038 5.00111 4.73777C4.68452 5.05515 4.43481 5.43312 4.26685 5.84919C4.0989 6.26526 4.01611 6.71095 4.02342 7.15974C4.02342 7.83261 4.22245 8.49037 4.59535 9.04984C4.96825 9.60932 5.49827 10.0454 6.11838 10.3029C6.73849 10.5604 7.42084 10.6277 8.07914 10.4965C8.73745 10.3652 9.34214 10.0412 9.81675 9.56539C10.2914 9.08959 10.6146 8.4834 10.7455 7.82345C10.8765 7.16351 10.8093 6.47946 10.5524 5.85781C10.2955 5.23616 9.86057 4.70482 9.30249 4.33099C8.7444 3.95717 8.08828 3.75764 7.41707 3.75764ZM7.41707 9.37859C7.12495 9.38391 6.83476 9.33015 6.56382 9.22053C6.29289 9.1109 6.04678 8.94766 5.84018 8.74055C5.63359 8.53344 5.47075 8.28672 5.3614 8.01511C5.25205 7.7435 5.19842 7.45259 5.20373 7.15974C5.19842 6.86689 5.25205 6.57597 5.3614 6.30437C5.47075 6.03276 5.63359 5.78603 5.84018 5.57892C6.04678 5.37181 6.29289 5.20857 6.56382 5.09895C6.83476 4.98932 7.12495 4.93556 7.41707 4.94088C7.70919 4.93556 7.99939 4.98932 8.27032 5.09895C8.54126 5.20857 8.78737 5.37181 8.99397 5.57892C9.20056 5.78603 9.3634 6.03276 9.47275 6.30437C9.5821 6.57597 9.63573 6.86689 9.63042 7.15974C9.63573 7.45259 9.5821 7.7435 9.47275 8.01511C9.3634 8.28672 9.20056 8.53344 8.99397 8.74055C8.78737 8.94766 8.54126 9.1109 8.27032 9.22053C7.99939 9.33015 7.70919 9.38391 7.41707 9.37859ZM10.9587 2.79549C10.7982 2.79549 10.6412 2.84322 10.5077 2.93264C10.3742 3.02206 10.2702 3.14916 10.2087 3.29786C10.1473 3.44656 10.1312 3.61019 10.1625 3.76805C10.1939 3.92591 10.2712 4.07091 10.3847 4.18473C10.4982 4.29854 10.6429 4.37604 10.8003 4.40744C10.9578 4.43884 11.121 4.42273 11.2694 4.36113C11.4177 4.29954 11.5445 4.19523 11.6337 4.06141C11.7229 3.92758 11.7705 3.77024 11.7705 3.60929C11.7686 3.39403 11.6825 3.18812 11.5307 3.03591C11.3788 2.88369 11.1734 2.79735 10.9587 2.79549Z" fill="white"/>
</svg>
