<svg width="22" height="22" viewBox="0 0 22 22" fill="none" xmlns="http://www.w3.org/2000/svg">
<rect x="1.50885" y="0.862492" width="19.7167" height="19.7167" rx="1.40833" stroke="#252E00" stroke-width="1.40833"/>
<path d="M3.41024 18.3052C3.39882 18.4993 3.54693 18.6659 3.74104 18.6773L6.90433 18.8634C7.09844 18.8748 7.26506 18.7267 7.27648 18.5326C7.28789 18.3385 7.13979 18.1718 6.94568 18.1604L4.13387 17.995L4.29927 15.1832C4.31069 14.9891 4.16258 14.8225 3.96847 14.8111C3.77435 14.7997 3.60774 14.9478 3.59632 15.1419L3.41024 18.3052ZM7.79813 15.209C7.94346 15.0798 7.95655 14.8573 7.82737 14.7119C7.69818 14.5666 7.47564 14.5535 7.33031 14.6827L7.79813 15.209ZM3.99563 18.589L7.79813 15.209L7.33031 14.6827L3.52781 18.0627L3.99563 18.589Z" fill="#252E00"/>
<path d="M19.3232 3.55907C19.3346 3.36496 19.1865 3.19834 18.9924 3.18692L15.8291 3.00084C15.635 2.98943 15.4683 3.13753 15.4569 3.33165C15.4455 3.52576 15.5936 3.69238 15.7877 3.7038L18.5995 3.8692L18.4341 6.681C18.4227 6.87512 18.5708 7.04173 18.7649 7.05315C18.959 7.06457 19.1257 6.91647 19.1371 6.72235L19.3232 3.55907ZM14.9353 6.65525C14.7899 6.78443 14.7768 7.00697 14.906 7.15231C15.0352 7.29764 15.2578 7.31073 15.4031 7.18155L14.9353 6.65525ZM18.7378 3.27525L14.9353 6.65525L15.4031 7.18155L19.2056 3.80155L18.7378 3.27525Z" fill="#252E00"/>
</svg>
