<svg width="20" height="17" viewBox="0 0 20 17" fill="none" xmlns="http://www.w3.org/2000/svg">
<path d="M8.84937 0.486359H10.4382V1.94595H8.84937V0.486359Z" fill="white"/>
<path d="M13.6178 0.486359H15.2065V1.94595H13.6178V0.486359Z" fill="white"/>
<path d="M4.08098 0.486359H5.66976V1.94595H4.08098V0.486359Z" fill="white"/>
<path d="M18.3862 1.94592H15.2072V4.13532H13.6178V1.94592H10.4389V4.13532H8.84939V1.94592H5.67046V4.13532H4.081V1.94592H0.90207C0.691294 1.94592 0.489151 2.02281 0.34011 2.15968C0.191068 2.29654 0.107338 2.48217 0.107338 2.67572L0.107338 15.8121C0.107338 16.0056 0.191068 16.1913 0.34011 16.3281C0.489151 16.465 0.691294 16.5419 0.90207 16.5419H18.3862C18.5969 16.5419 18.7991 16.465 18.9481 16.3281C19.0972 16.1913 19.1809 16.0056 19.1809 15.8121V2.67572C19.1809 2.48217 19.0972 2.29654 18.9481 2.15968C18.7991 2.02281 18.5969 1.94592 18.3862 1.94592ZM14.7454 11.2974L13.6178 10.5575V13.6227C13.6178 13.8162 13.534 14.0019 13.385 14.1387C13.236 14.2756 13.0338 14.3525 12.823 14.3525H10.8362V11.4333C10.8362 11.2397 10.7525 11.0541 10.6034 10.9172C10.4544 10.7804 10.2523 10.7035 10.0415 10.7035H9.24675C9.03598 10.7035 8.83383 10.7804 8.68479 10.9172C8.53575 11.0541 8.45202 11.2397 8.45202 11.4333V14.3525H6.46519C6.25442 14.3525 6.05227 14.2756 5.90323 14.1387C5.75419 14.0019 5.67046 13.8162 5.67046 13.6227V10.5575L4.54293 11.2974L3.61906 10.1096L9.18218 6.46063C9.31753 6.37349 9.47882 6.32674 9.64412 6.32674C9.80942 6.32674 9.97071 6.37349 10.1061 6.46063L15.6692 10.1096L14.7454 11.2974Z" fill="white"/>
</svg>
