<svg width="22" height="22" viewBox="0 0 22 22" fill="none" xmlns="http://www.w3.org/2000/svg">
<path fill-rule="evenodd" clip-rule="evenodd" d="M11.0459 19.8751C13.5905 19.8751 15.8927 18.8368 17.5518 17.1608L12.7907 13.402H4.13964V11.2895H10.1149L3.27097 5.88642C2.39677 7.28937 1.89173 8.94615 1.89173 10.7209C1.89173 15.7766 5.99019 19.8751 11.0459 19.8751ZM12.3877 11.2895L4.10583 4.7512C5.7846 2.80133 8.27107 1.56672 11.0459 1.56672C16.1016 1.56672 20.2001 5.66518 20.2001 10.7209C20.2001 12.725 19.556 14.5787 18.4636 16.0863L15.0636 13.402H16.3271V11.2895H12.3877ZM11.0459 21.2834C16.8794 21.2834 21.6084 16.5544 21.6084 10.7209C21.6084 4.88738 16.8794 0.158386 11.0459 0.158386C5.21239 0.158386 0.483398 4.88738 0.483398 10.7209C0.483398 16.5544 5.21239 21.2834 11.0459 21.2834ZM16.7878 13.5646V11.1271H17.492V13.5646H16.7878ZM12.4842 3.2771C12.636 3.15563 12.6607 2.93406 12.5392 2.78222C12.4177 2.63038 12.1962 2.60576 12.0443 2.72724C11.2153 3.39042 10.6969 3.97283 10.4333 4.49185C10.1623 5.02525 10.1519 5.51575 10.3831 5.92704C10.6005 6.31372 10.9952 6.56289 11.3898 6.72213C11.5221 6.77548 11.6595 6.82089 11.7986 6.85909C11.6999 6.93817 11.6032 7.01924 11.5111 7.10112C11.22 7.35992 10.9377 7.658 10.7989 7.94895C10.7286 8.09618 10.6733 8.28654 10.7215 8.48653C10.7738 8.70363 10.9276 8.85198 11.1126 8.94095C11.2882 9.02542 11.5092 9.0667 11.7614 9.08057C12.0182 9.09468 12.3321 9.08151 12.7094 9.03959C15.4768 8.7321 16.5893 10.1842 16.8053 10.8322C16.8667 11.0167 17.0661 11.1164 17.2506 11.0549C17.4351 10.9934 17.5348 10.794 17.4733 10.6096C17.1476 9.63258 15.7142 7.99722 12.6316 8.33973C12.2777 8.37906 12.0051 8.38874 11.8001 8.37746C11.5905 8.36594 11.4744 8.33359 11.4177 8.30634L11.4135 8.30425C11.4173 8.29178 11.4237 8.27465 11.4344 8.25225C11.5088 8.09633 11.6988 7.87644 11.9789 7.62743C12.2494 7.38701 12.5709 7.14801 12.8658 6.95137L13.6958 6.39808L12.7024 6.30778C12.3545 6.27615 11.9752 6.199 11.6533 6.06912C11.3243 5.93637 11.1012 5.76743 10.997 5.58198C10.9065 5.42114 10.8708 5.18546 11.0611 4.81073C11.2587 4.42161 11.6882 3.91392 12.4842 3.2771Z" fill="#252E00"/>
</svg>
