<svg width="15" height="12" viewBox="0 0 15 12" fill="none" xmlns="http://www.w3.org/2000/svg">
<path fill-rule="evenodd" clip-rule="evenodd" d="M4.98247 11.4302C6.00239 11.4394 7.01393 11.2449 7.958 10.8578C8.90208 10.4708 9.75977 9.89908 10.481 9.17607C11.2022 8.45305 11.7725 7.59322 12.1586 6.64679C12.5446 5.70037 12.7387 4.68631 12.7295 3.66385V3.29369C13.2451 2.90033 13.6937 2.42583 14.0578 1.88863C13.5631 2.10427 13.042 2.25344 12.5083 2.33226C13.0569 1.98683 13.4729 1.46549 13.6886 0.85302C13.1555 1.1505 12.5847 1.37434 11.9918 1.51846C11.7422 1.23652 11.4353 1.01145 11.0916 0.858408C10.748 0.705362 10.3757 0.627889 9.99967 0.631206C9.27927 0.642781 8.5916 0.934822 8.08214 1.44556C7.57267 1.95629 7.28135 2.64567 7.2698 3.36786C7.25212 3.568 7.27636 3.76964 7.34095 3.95984C6.25533 3.90727 5.19345 3.62273 4.22644 3.1253C3.25944 2.62786 2.40963 1.929 1.73395 1.07555C1.49108 1.50374 1.36381 1.98803 1.3647 2.48061C1.37444 2.92765 1.48582 3.36658 1.69036 3.76395C1.8949 4.16131 2.18721 4.50664 2.54501 4.77364C2.10148 4.76446 1.66845 4.63666 1.29071 4.40347C1.28999 5.03692 1.5112 5.6505 1.91573 6.13711C2.32025 6.62373 2.88241 6.95247 3.50406 7.06595C3.26367 7.12997 3.01444 7.15406 2.76627 7.13728C2.59102 7.14999 2.41505 7.12569 2.24975 7.06595C2.42978 7.61462 2.77453 8.09412 3.23683 8.43884C3.69913 8.78355 4.25639 8.97663 4.83235 8.99167C3.86254 9.75102 2.66923 10.1671 1.43869 10.1749C1.21502 10.1878 0.990767 10.1637 0.774902 10.1036C1.99579 10.9925 3.47164 11.4598 4.98033 11.4352" fill="white"/>
</svg>
