<svg width="63" height="62" viewBox="0 0 63 62" fill="none" xmlns="http://www.w3.org/2000/svg">
<path d="M51.6426 53.4177C47.0778 47.3933 39.8454 43.5017 31.7041 43.5017C23.5628 43.5017 16.3304 47.3933 11.7656 53.4177M51.6426 53.4177C57.8158 47.9229 61.7041 39.9164 61.7041 31.0017C61.7041 14.4332 48.2726 1.00171 31.7041 1.00171C15.1356 1.00171 1.7041 14.4332 1.7041 31.0017C1.7041 39.9164 5.59244 47.9229 11.7656 53.4177M51.6426 53.4177C46.3424 58.1354 39.358 61.0017 31.7041 61.0017C24.0502 61.0017 17.0658 58.1354 11.7656 53.4177M41.7041 23.5017C41.7041 29.0246 37.2269 33.5017 31.7041 33.5017C26.1813 33.5017 21.7041 29.0246 21.7041 23.5017C21.7041 17.9789 26.1813 13.5017 31.7041 13.5017C37.2269 13.5017 41.7041 17.9789 41.7041 23.5017Z" stroke="#252E00" stroke-width="2" stroke-linecap="round" stroke-linejoin="round"/>
</svg>
